<svg width="223" height="225" viewBox="0 0 223 225" fill="none" xmlns="http://www.w3.org/2000/svg">
<path d="M195.752 78.8088C188.348 74.0078 180.93 70.7772 173.698 68.8857C166.455 66.9864 159.393 66.4297 152.693 66.9662C145.982 67.4949 139.645 69.122 133.851 71.5955C128.055 74.0716 122.794 77.3931 118.267 81.3219C115.583 83.6482 113.166 86.1755 111.035 88.8851C108.883 91.6183 107.076 94.5592 105.633 97.6776C104.209 100.793 103.187 104.085 102.691 107.533C102.192 110.977 102.207 114.573 102.84 118.291C103.23 120.572 104.106 123.452 105.434 126.46C106.765 129.463 108.555 132.6 110.78 135.373C113.005 138.146 115.664 140.567 118.725 142.146C121.787 143.725 125.255 144.47 129.111 143.893C131.9 143.481 134.14 142.22 135.439 140.332C136.754 138.512 137.333 136.165 137.436 133.617C137.542 131.072 137.155 128.32 136.525 125.692C135.945 123.298 135.132 120.893 134.091 118.5C132.604 115.133 130.753 111.802 128.565 108.55C126.346 105.254 123.801 102.052 120.961 98.9814C118.113 95.9078 114.973 92.9808 111.593 90.2847C108.242 87.5981 104.624 85.1457 100.803 82.9717C96.654 80.6072 92.258 78.6549 87.7466 77.1732C83.4714 75.7736 79.1283 74.8665 74.8661 74.4831C48.3039 72.1035 34.3132 89.9029 25.5395 105.607C21.2012 113.381 17.1531 121.302 13.1724 129.253C9.06707 137.427 5.50655 145.858 2.50067 154.524" stroke="black" stroke-width="5" stroke-miterlimit="10" stroke-linecap="round"/>
<path d="M187.697 53.8832C191.644 67.5771 206.58 76.7012 213.382 89.6381C200.975 87.0342 175.824 82.6339 165.011 85.9836" stroke="black" stroke-width="5" stroke-miterlimit="10" stroke-linecap="round" stroke-linejoin="round"/>
</svg>
